<?xml version="1.0" standalone="no"?>
<!DOCTYPE svg PUBLIC "-//W3C//DTD SVG 20010904//EN"
 "http://www.w3.org/TR/2001/REC-SVG-20010904/DTD/svg10.dtd">
<svg version="1.0" xmlns="http://www.w3.org/2000/svg"
 viewBox="0 0 2600.000000 2600.000000"
 preserveAspectRatio="xMidYMid meet">
<metadata>
Created by potrace 1.15, written by Peter Selinger 2001-2017
</metadata>
<g transform="translate(0.000000,2600.000000) scale(0.100000,-0.100000)"
fill="#000000" stroke="none">
<path d="M11870 16593 c-275 -19 -354 -25 -470 -39 -1704 -193 -3198 -947
-4022 -2029 -108 -143 -249 -360 -306 -471 -20 -39 -24 -42 -104 -63 -114 -30
-276 -97 -384 -159 -495 -284 -816 -759 -910 -1347 -23 -144 -23 -419 0 -565
83 -534 363 -990 776 -1264 52 -34 107 -70 122 -79 21 -13 29 -29 38 -74 213
-1061 834 -1803 1620 -1940 100 -17 279 -18 4065 -18 3754 0 3965 1 4052 18
340 65 603 204 866 457 278 266 490 616 636 1050 42 123 104 358 116 444 7 43
11 48 69 83 307 186 531 430 686 748 375 766 214 1678 -396 2243 -189 175
-400 299 -651 382 l-148 48 -63 109 c-583 1001 -1660 1771 -3045 2177 -528
155 -1062 248 -1652 286 -135 9 -783 11 -895 3z m785 -463 c1402 -75 2647
-513 3556 -1251 229 -186 516 -488 675 -709 82 -114 182 -277 237 -387 76
-150 113 -179 265 -208 251 -48 494 -184 680 -380 404 -427 504 -1079 247
-1622 -164 -348 -442 -595 -801 -711 -133 -43 -237 -56 -410 -49 -190 7 -301
34 -468 116 -131 63 -223 125 -329 220 -37 34 -81 68 -98 77 -49 25 -120 29
-178 9 -54 -18 -76 -39 -191 -187 -109 -141 -280 -253 -455 -299 -104 -28
-290 -30 -384 -6 -251 67 -416 198 -586 468 -51 81 -109 114 -200 113 -107 0
-145 -30 -255 -200 -125 -193 -313 -328 -526 -381 -92 -22 -277 -22 -363 1
-250 65 -416 197 -586 467 -51 81 -109 114 -200 113 -104 0 -154 -38 -240
-178 -88 -143 -229 -273 -371 -342 -115 -55 -211 -76 -349 -77 -149 0 -225 17
-360 84 -165 80 -278 191 -410 400 -51 81 -109 114 -200 113 -104 0 -154 -38
-240 -178 -120 -196 -310 -341 -521 -397 -102 -27 -287 -30 -386 -6 -206 51
-380 173 -524 369 -52 71 -73 91 -119 113 -47 24 -64 27 -114 22 -74 -6 -98
-20 -196 -107 -141 -127 -290 -215 -456 -271 -128 -43 -234 -59 -384 -59 -209
-1 -363 37 -554 135 -364 187 -622 532 -711 953 -30 141 -37 374 -16 520 87
590 504 1047 1056 1158 152 30 180 53 276 234 694 1305 2423 2211 4424 2319
217 12 551 12 765 1z m-3973 -5650 c339 -227 743 -281 1129 -149 158 54 342
167 482 299 l67 63 83 -79 c186 -179 423 -296 686 -340 133 -21 346 -15 467
15 244 60 443 168 627 341 l67 62 85 -80 c191 -181 421 -294 684 -338 133 -21
346 -15 467 15 246 61 441 167 627 341 l67 62 85 -80 c362 -343 874 -444 1340
-263 149 57 312 163 438 284 l57 56 78 -53 c109 -74 194 -120 305 -165 283
-115 547 -153 821 -116 61 8 112 13 114 10 8 -7 -85 -267 -133 -376 -249 -553
-651 -914 -1080 -969 -67 -8 -1108 -10 -4015 -8 l-3925 3 -98 27 c-114 33
-229 88 -342 163 -310 209 -577 605 -726 1079 l-28 88 42 -6 c183 -30 309 -33
467 -12 261 35 504 128 727 276 l87 58 80 -75 c45 -41 120 -101 168 -133z"/>
<path d="M12233 15238 c-348 -635 -420 -1089 -194 -1238 67 -45 140 -63 251
-62 137 1 217 27 284 95 72 72 91 134 90 287 -2 141 -36 283 -120 495 -54 136
-207 446 -242 493 l-18 23 -51 -93z"/>
<path d="M10665 15285 c-5 -2 -66 -20 -135 -40 -244 -73 -517 -191 -675 -293
-91 -58 -214 -183 -245 -247 -37 -76 -35 -180 4 -260 39 -80 161 -202 241
-241 81 -39 185 -41 260 -5 156 76 325 326 458 677 46 120 127 377 127 402 0
11 -13 14 -35 7z"/>
<path d="M13873 15276 c4 -9 14 -43 22 -76 27 -104 123 -373 174 -488 118
-265 249 -439 386 -510 42 -22 63 -27 130 -27 67 0 88 5 130 27 112 58 229
184 261 280 90 271 -201 522 -857 738 -96 32 -193 62 -214 66 -33 6 -37 5 -32
-10z"/>
</g>
</svg>
